<mxfile host="app.diagrams.net" agent="Mozilla/5.0 (Windows NT 10.0; Win64; x64) AppleWebKit/537.36 (KHTML, like Gecko) Chrome/129.0.0.0 Safari/537.36" version="24.7.17">
  <diagram name="Page-1" id="qAFMcb8U9MX3fo54RW6C">
    <mxGraphModel dx="794" dy="446" grid="1" gridSize="10" guides="1" tooltips="1" connect="1" arrows="1" fold="1" page="1" pageScale="1" pageWidth="850" pageHeight="1100" math="0" shadow="0">
      <root>
        <mxCell id="0" />
        <mxCell id="1" parent="0" />
        <mxCell id="pgEsVmiycJR8dcqlfV1D-4" style="edgeStyle=orthogonalEdgeStyle;rounded=0;orthogonalLoop=1;jettySize=auto;html=1;exitX=0.5;exitY=1;exitDx=0;exitDy=0;" parent="1" source="pgEsVmiycJR8dcqlfV1D-1" target="pgEsVmiycJR8dcqlfV1D-5" edge="1">
          <mxGeometry relative="1" as="geometry">
            <mxPoint x="400" y="90" as="targetPoint" />
          </mxGeometry>
        </mxCell>
        <mxCell id="pgEsVmiycJR8dcqlfV1D-1" value="&lt;font style=&quot;font-size: 24px;&quot;&gt;start&lt;/font&gt;" style="ellipse;whiteSpace=wrap;html=1;" parent="1" vertex="1">
          <mxGeometry x="340" y="20" width="120" height="40" as="geometry" />
        </mxCell>
        <mxCell id="pgEsVmiycJR8dcqlfV1D-2" style="edgeStyle=orthogonalEdgeStyle;rounded=0;orthogonalLoop=1;jettySize=auto;html=1;exitX=0.5;exitY=1;exitDx=0;exitDy=0;" parent="1" source="pgEsVmiycJR8dcqlfV1D-1" target="pgEsVmiycJR8dcqlfV1D-1" edge="1">
          <mxGeometry relative="1" as="geometry" />
        </mxCell>
        <mxCell id="pgEsVmiycJR8dcqlfV1D-6" style="edgeStyle=orthogonalEdgeStyle;rounded=0;orthogonalLoop=1;jettySize=auto;html=1;exitX=0.5;exitY=1;exitDx=0;exitDy=0;" parent="1" source="pgEsVmiycJR8dcqlfV1D-5" target="pgEsVmiycJR8dcqlfV1D-7" edge="1">
          <mxGeometry relative="1" as="geometry">
            <mxPoint x="400" y="170" as="targetPoint" />
          </mxGeometry>
        </mxCell>
        <mxCell id="pgEsVmiycJR8dcqlfV1D-5" value="&lt;font style=&quot;font-size: 18px;&quot;&gt;&lt;font style=&quot;&quot;&gt;Enter a numbe&lt;/font&gt;r X&lt;/font&gt;" style="shape=parallelogram;perimeter=parallelogramPerimeter;whiteSpace=wrap;html=1;fixedSize=1;" parent="1" vertex="1">
          <mxGeometry x="310" y="100" width="180" height="30" as="geometry" />
        </mxCell>
        <mxCell id="pgEsVmiycJR8dcqlfV1D-10" value="" style="edgeStyle=orthogonalEdgeStyle;rounded=0;orthogonalLoop=1;jettySize=auto;html=1;" parent="1" source="pgEsVmiycJR8dcqlfV1D-7" target="pgEsVmiycJR8dcqlfV1D-9" edge="1">
          <mxGeometry relative="1" as="geometry" />
        </mxCell>
        <mxCell id="pgEsVmiycJR8dcqlfV1D-7" value="&lt;font style=&quot;font-size: 18px;&quot;&gt;Enter an operation&amp;nbsp;&lt;/font&gt;" style="shape=parallelogram;perimeter=parallelogramPerimeter;whiteSpace=wrap;html=1;fixedSize=1;" parent="1" vertex="1">
          <mxGeometry x="305" y="180" width="190" height="30" as="geometry" />
        </mxCell>
        <mxCell id="pgEsVmiycJR8dcqlfV1D-12" style="edgeStyle=orthogonalEdgeStyle;rounded=0;orthogonalLoop=1;jettySize=auto;html=1;exitX=0.5;exitY=1;exitDx=0;exitDy=0;" parent="1" source="pgEsVmiycJR8dcqlfV1D-9" edge="1">
          <mxGeometry relative="1" as="geometry">
            <mxPoint x="400" y="330" as="targetPoint" />
          </mxGeometry>
        </mxCell>
        <mxCell id="pgEsVmiycJR8dcqlfV1D-9" value="&lt;font style=&quot;font-size: 18px;&quot;&gt;Enter the sec num Y&lt;/font&gt;" style="shape=parallelogram;perimeter=parallelogramPerimeter;whiteSpace=wrap;html=1;fixedSize=1;" parent="1" vertex="1">
          <mxGeometry x="305" y="260" width="190" height="30" as="geometry" />
        </mxCell>
        <mxCell id="pgEsVmiycJR8dcqlfV1D-11" style="edgeStyle=orthogonalEdgeStyle;rounded=0;orthogonalLoop=1;jettySize=auto;html=1;exitX=0.5;exitY=1;exitDx=0;exitDy=0;" parent="1" source="pgEsVmiycJR8dcqlfV1D-9" target="pgEsVmiycJR8dcqlfV1D-9" edge="1">
          <mxGeometry relative="1" as="geometry" />
        </mxCell>
        <mxCell id="pgEsVmiycJR8dcqlfV1D-15" value="" style="edgeStyle=orthogonalEdgeStyle;rounded=0;orthogonalLoop=1;jettySize=auto;html=1;" parent="1" source="pgEsVmiycJR8dcqlfV1D-13" target="pgEsVmiycJR8dcqlfV1D-14" edge="1">
          <mxGeometry relative="1" as="geometry" />
        </mxCell>
        <mxCell id="pgEsVmiycJR8dcqlfV1D-17" value="" style="edgeStyle=orthogonalEdgeStyle;rounded=0;orthogonalLoop=1;jettySize=auto;html=1;" parent="1" source="pgEsVmiycJR8dcqlfV1D-13" target="pgEsVmiycJR8dcqlfV1D-16" edge="1">
          <mxGeometry relative="1" as="geometry" />
        </mxCell>
        <mxCell id="pgEsVmiycJR8dcqlfV1D-13" value="&lt;font style=&quot;font-size: 18px;&quot;&gt;If operation is +&lt;/font&gt;" style="rhombus;whiteSpace=wrap;html=1;" parent="1" vertex="1">
          <mxGeometry x="320" y="330" width="160" height="80" as="geometry" />
        </mxCell>
        <mxCell id="pgEsVmiycJR8dcqlfV1D-33" style="edgeStyle=orthogonalEdgeStyle;rounded=0;orthogonalLoop=1;jettySize=auto;html=1;exitX=1;exitY=0.5;exitDx=0;exitDy=0;" parent="1" source="pgEsVmiycJR8dcqlfV1D-14" edge="1">
          <mxGeometry relative="1" as="geometry">
            <mxPoint x="820" y="899" as="targetPoint" />
          </mxGeometry>
        </mxCell>
        <mxCell id="pgEsVmiycJR8dcqlfV1D-14" value="&lt;font style=&quot;font-size: 18px;&quot;&gt;Result =X+Y&lt;/font&gt;" style="whiteSpace=wrap;html=1;" parent="1" vertex="1">
          <mxGeometry x="580" y="340" width="120" height="60" as="geometry" />
        </mxCell>
        <mxCell id="pgEsVmiycJR8dcqlfV1D-21" value="" style="edgeStyle=orthogonalEdgeStyle;rounded=0;orthogonalLoop=1;jettySize=auto;html=1;" parent="1" source="pgEsVmiycJR8dcqlfV1D-16" target="pgEsVmiycJR8dcqlfV1D-20" edge="1">
          <mxGeometry relative="1" as="geometry" />
        </mxCell>
        <mxCell id="pgEsVmiycJR8dcqlfV1D-23" value="" style="edgeStyle=orthogonalEdgeStyle;rounded=0;orthogonalLoop=1;jettySize=auto;html=1;" parent="1" source="pgEsVmiycJR8dcqlfV1D-16" target="pgEsVmiycJR8dcqlfV1D-22" edge="1">
          <mxGeometry relative="1" as="geometry" />
        </mxCell>
        <mxCell id="pgEsVmiycJR8dcqlfV1D-16" value="&lt;font style=&quot;font-size: 18px;&quot;&gt;if&amp;nbsp; operation is -&lt;/font&gt;" style="rhombus;whiteSpace=wrap;html=1;" parent="1" vertex="1">
          <mxGeometry x="310" y="460" width="180" height="80" as="geometry" />
        </mxCell>
        <mxCell id="pgEsVmiycJR8dcqlfV1D-18" style="edgeStyle=orthogonalEdgeStyle;rounded=0;orthogonalLoop=1;jettySize=auto;html=1;exitX=0.5;exitY=1;exitDx=0;exitDy=0;" parent="1" source="pgEsVmiycJR8dcqlfV1D-16" target="pgEsVmiycJR8dcqlfV1D-16" edge="1">
          <mxGeometry relative="1" as="geometry" />
        </mxCell>
        <mxCell id="pgEsVmiycJR8dcqlfV1D-35" value="" style="edgeStyle=orthogonalEdgeStyle;rounded=0;orthogonalLoop=1;jettySize=auto;html=1;" parent="1" source="pgEsVmiycJR8dcqlfV1D-20" edge="1">
          <mxGeometry relative="1" as="geometry">
            <mxPoint x="820" y="500" as="targetPoint" />
          </mxGeometry>
        </mxCell>
        <mxCell id="pgEsVmiycJR8dcqlfV1D-20" value="&lt;font style=&quot;font-size: 18px;&quot;&gt;Result =X-Y&lt;/font&gt;" style="whiteSpace=wrap;html=1;" parent="1" vertex="1">
          <mxGeometry x="580" y="470" width="120" height="60" as="geometry" />
        </mxCell>
        <mxCell id="pgEsVmiycJR8dcqlfV1D-25" value="" style="edgeStyle=orthogonalEdgeStyle;rounded=0;orthogonalLoop=1;jettySize=auto;html=1;" parent="1" source="pgEsVmiycJR8dcqlfV1D-22" target="pgEsVmiycJR8dcqlfV1D-24" edge="1">
          <mxGeometry relative="1" as="geometry" />
        </mxCell>
        <mxCell id="pgEsVmiycJR8dcqlfV1D-27" value="" style="edgeStyle=orthogonalEdgeStyle;rounded=0;orthogonalLoop=1;jettySize=auto;html=1;" parent="1" source="pgEsVmiycJR8dcqlfV1D-22" target="pgEsVmiycJR8dcqlfV1D-26" edge="1">
          <mxGeometry relative="1" as="geometry" />
        </mxCell>
        <mxCell id="pgEsVmiycJR8dcqlfV1D-22" value="&lt;font style=&quot;font-size: 18px;&quot;&gt;if operation is *&lt;/font&gt;" style="rhombus;whiteSpace=wrap;html=1;" parent="1" vertex="1">
          <mxGeometry x="320" y="590" width="160" height="90" as="geometry" />
        </mxCell>
        <mxCell id="pgEsVmiycJR8dcqlfV1D-37" value="" style="edgeStyle=orthogonalEdgeStyle;rounded=0;orthogonalLoop=1;jettySize=auto;html=1;" parent="1" source="pgEsVmiycJR8dcqlfV1D-24" edge="1">
          <mxGeometry relative="1" as="geometry">
            <mxPoint x="820" y="635" as="targetPoint" />
          </mxGeometry>
        </mxCell>
        <mxCell id="pgEsVmiycJR8dcqlfV1D-24" value="&lt;font style=&quot;font-size: 18px;&quot;&gt;Result =X*Y&lt;/font&gt;" style="whiteSpace=wrap;html=1;" parent="1" vertex="1">
          <mxGeometry x="580" y="605" width="120" height="60" as="geometry" />
        </mxCell>
        <mxCell id="pgEsVmiycJR8dcqlfV1D-29" style="edgeStyle=orthogonalEdgeStyle;rounded=0;orthogonalLoop=1;jettySize=auto;html=1;exitX=0.5;exitY=0;exitDx=0;exitDy=0;" parent="1" source="pgEsVmiycJR8dcqlfV1D-26" edge="1">
          <mxGeometry relative="1" as="geometry">
            <mxPoint x="400" y="760" as="targetPoint" />
          </mxGeometry>
        </mxCell>
        <mxCell id="pgEsVmiycJR8dcqlfV1D-32" value="" style="edgeStyle=orthogonalEdgeStyle;rounded=0;orthogonalLoop=1;jettySize=auto;html=1;" parent="1" source="pgEsVmiycJR8dcqlfV1D-26" target="pgEsVmiycJR8dcqlfV1D-31" edge="1">
          <mxGeometry relative="1" as="geometry" />
        </mxCell>
        <mxCell id="pgEsVmiycJR8dcqlfV1D-26" value="&lt;font style=&quot;font-size: 18px;&quot;&gt;if operation is /&lt;/font&gt;" style="rhombus;whiteSpace=wrap;html=1;" parent="1" vertex="1">
          <mxGeometry x="310" y="710" width="180" height="110" as="geometry" />
        </mxCell>
        <mxCell id="pgEsVmiycJR8dcqlfV1D-28" style="edgeStyle=orthogonalEdgeStyle;rounded=0;orthogonalLoop=1;jettySize=auto;html=1;exitX=0.5;exitY=1;exitDx=0;exitDy=0;" parent="1" source="pgEsVmiycJR8dcqlfV1D-26" target="pgEsVmiycJR8dcqlfV1D-26" edge="1">
          <mxGeometry relative="1" as="geometry" />
        </mxCell>
        <mxCell id="pgEsVmiycJR8dcqlfV1D-30" style="edgeStyle=orthogonalEdgeStyle;rounded=0;orthogonalLoop=1;jettySize=auto;html=1;exitX=0.5;exitY=1;exitDx=0;exitDy=0;" parent="1" source="pgEsVmiycJR8dcqlfV1D-26" target="pgEsVmiycJR8dcqlfV1D-26" edge="1">
          <mxGeometry relative="1" as="geometry" />
        </mxCell>
        <mxCell id="pgEsVmiycJR8dcqlfV1D-39" value="" style="edgeStyle=orthogonalEdgeStyle;rounded=0;orthogonalLoop=1;jettySize=auto;html=1;" parent="1" source="pgEsVmiycJR8dcqlfV1D-31" edge="1">
          <mxGeometry relative="1" as="geometry">
            <mxPoint x="820" y="765" as="targetPoint" />
          </mxGeometry>
        </mxCell>
        <mxCell id="pgEsVmiycJR8dcqlfV1D-31" value="&lt;font style=&quot;font-size: 18px;&quot;&gt;Result = x/y&lt;/font&gt;" style="whiteSpace=wrap;html=1;" parent="1" vertex="1">
          <mxGeometry x="600" y="735" width="120" height="60" as="geometry" />
        </mxCell>
        <mxCell id="pgEsVmiycJR8dcqlfV1D-49" value="" style="edgeStyle=orthogonalEdgeStyle;rounded=0;orthogonalLoop=1;jettySize=auto;html=1;" parent="1" source="pgEsVmiycJR8dcqlfV1D-42" target="pgEsVmiycJR8dcqlfV1D-48" edge="1">
          <mxGeometry relative="1" as="geometry" />
        </mxCell>
        <mxCell id="pgEsVmiycJR8dcqlfV1D-42" value="&lt;font style=&quot;font-size: 18px;&quot;&gt;Result&lt;/font&gt;" style="rounded=1;whiteSpace=wrap;html=1;" parent="1" vertex="1">
          <mxGeometry x="600" y="860" width="120" height="60" as="geometry" />
        </mxCell>
        <mxCell id="pgEsVmiycJR8dcqlfV1D-47" value="" style="edgeStyle=orthogonalEdgeStyle;rounded=0;orthogonalLoop=1;jettySize=auto;html=1;" parent="1" target="pgEsVmiycJR8dcqlfV1D-42" edge="1">
          <mxGeometry relative="1" as="geometry">
            <mxPoint x="770" y="890" as="sourcePoint" />
            <Array as="points">
              <mxPoint x="820" y="890" />
              <mxPoint x="820" y="891" />
              <mxPoint x="740" y="891" />
              <mxPoint x="740" y="890" />
            </Array>
          </mxGeometry>
        </mxCell>
        <mxCell id="pgEsVmiycJR8dcqlfV1D-52" value="" style="edgeStyle=orthogonalEdgeStyle;rounded=0;orthogonalLoop=1;jettySize=auto;html=1;" parent="1" source="pgEsVmiycJR8dcqlfV1D-48" target="pgEsVmiycJR8dcqlfV1D-51" edge="1">
          <mxGeometry relative="1" as="geometry" />
        </mxCell>
        <mxCell id="pgEsVmiycJR8dcqlfV1D-56" value="" style="edgeStyle=orthogonalEdgeStyle;rounded=0;orthogonalLoop=1;jettySize=auto;html=1;" parent="1" source="pgEsVmiycJR8dcqlfV1D-48" target="pgEsVmiycJR8dcqlfV1D-55" edge="1">
          <mxGeometry relative="1" as="geometry" />
        </mxCell>
        <mxCell id="pgEsVmiycJR8dcqlfV1D-48" value="&lt;font size=&quot;3&quot;&gt;If operation is exit&lt;/font&gt;" style="rhombus;whiteSpace=wrap;html=1;rounded=1;" parent="1" vertex="1">
          <mxGeometry x="580" y="990" width="160" height="80" as="geometry" />
        </mxCell>
        <mxCell id="pgEsVmiycJR8dcqlfV1D-51" value="" style="shape=waypoint;sketch=0;size=6;pointerEvents=1;points=[];fillColor=default;resizable=0;rotatable=0;perimeter=centerPerimeter;snapToPoint=1;rounded=1;" parent="1" vertex="1">
          <mxGeometry x="790" y="1020" width="20" height="20" as="geometry" />
        </mxCell>
        <mxCell id="pgEsVmiycJR8dcqlfV1D-53" value="&lt;font style=&quot;font-size: 18px;&quot;&gt;End&amp;nbsp;&lt;/font&gt;" style="ellipse;whiteSpace=wrap;html=1;" parent="1" vertex="1">
          <mxGeometry x="800" y="1010" width="120" height="40" as="geometry" />
        </mxCell>
        <mxCell id="pgEsVmiycJR8dcqlfV1D-58" value="" style="edgeStyle=orthogonalEdgeStyle;rounded=0;orthogonalLoop=1;jettySize=auto;html=1;" parent="1" source="pgEsVmiycJR8dcqlfV1D-55" target="pgEsVmiycJR8dcqlfV1D-57" edge="1">
          <mxGeometry relative="1" as="geometry" />
        </mxCell>
        <mxCell id="pgEsVmiycJR8dcqlfV1D-55" value="&lt;font style=&quot;font-size: 18px;&quot;&gt;Enter another operation&lt;/font&gt;" style="shape=parallelogram;perimeter=parallelogramPerimeter;whiteSpace=wrap;html=1;fixedSize=1;rounded=1;" parent="1" vertex="1">
          <mxGeometry x="570" y="1120" width="180" height="60" as="geometry" />
        </mxCell>
        <mxCell id="pgEsVmiycJR8dcqlfV1D-60" style="edgeStyle=orthogonalEdgeStyle;rounded=0;orthogonalLoop=1;jettySize=auto;html=1;" parent="1" source="pgEsVmiycJR8dcqlfV1D-57" edge="1">
          <mxGeometry relative="1" as="geometry">
            <mxPoint x="660" y="1370" as="targetPoint" />
            <Array as="points">
              <mxPoint x="660" y="1370" />
            </Array>
          </mxGeometry>
        </mxCell>
        <mxCell id="pgEsVmiycJR8dcqlfV1D-57" value="&lt;font style=&quot;font-size: 18px;&quot;&gt;Enter another num&amp;nbsp;&lt;/font&gt;" style="shape=parallelogram;perimeter=parallelogramPerimeter;whiteSpace=wrap;html=1;fixedSize=1;rounded=1;" parent="1" vertex="1">
          <mxGeometry x="560" y="1240" width="200" height="50" as="geometry" />
        </mxCell>
        <mxCell id="pgEsVmiycJR8dcqlfV1D-62" value="" style="edgeStyle=orthogonalEdgeStyle;html=1;endArrow=none;elbow=vertical;startArrow=block;startFill=1;strokeColor=#545B64;rounded=0;" parent="1" edge="1">
          <mxGeometry width="100" relative="1" as="geometry">
            <mxPoint x="230" y="1360" as="sourcePoint" />
            <mxPoint x="660" y="1370" as="targetPoint" />
          </mxGeometry>
        </mxCell>
        <mxCell id="pgEsVmiycJR8dcqlfV1D-68" value="" style="endArrow=classic;html=1;rounded=0;" parent="1" edge="1">
          <mxGeometry width="50" height="50" relative="1" as="geometry">
            <mxPoint x="230" y="1360" as="sourcePoint" />
            <mxPoint x="220" y="370" as="targetPoint" />
            <Array as="points">
              <mxPoint x="230" y="1350" />
            </Array>
          </mxGeometry>
        </mxCell>
        <mxCell id="pgEsVmiycJR8dcqlfV1D-86" value="" style="shape=image;html=1;verticalAlign=top;verticalLabelPosition=bottom;labelBackgroundColor=#ffffff;imageAspect=0;aspect=fixed;image=https://cdn0.iconfinder.com/data/icons/phosphor-thin-vol-1/256/arrow-right-thin-128.png" parent="1" vertex="1">
          <mxGeometry x="200" y="300" width="140" height="140" as="geometry" />
        </mxCell>
      </root>
    </mxGraphModel>
  </diagram>
</mxfile>
